<?xml version="1.0" encoding="UTF-8"?>
<svg transform="rotate(247.5)" width="752pt" height="752pt" version="1.1" viewBox="0 0 752 752"
  xmlns="http://www.w3.org/2000/svg">
  <path
    d="m374.67 271.82c-4.2227 0.26172-8.2344 1.9297-11.398 4.7344l-189.43 170.49h0.003906c-3.7656 3.3711-6.0352 8.1055-6.3086 13.152-0.27344 5.0469 1.4766 9.9922 4.8594 13.75 3.3828 3.7539 8.1211 6.0117 13.168 6.2656 5.0469 0.25781 9.9883-1.5078 13.734-4.8984l176.71-159.09 176.7 159.09c3.7461 3.3906 8.6875 5.1562 13.734 4.8984 5.0508-0.25391 9.7891-2.5117 13.172-6.2656 3.3789-3.7578 5.1289-8.7031 4.8555-13.75-0.26953-5.0469-2.5391-9.7812-6.3047-13.152l-189.43-170.49c-3.8477-3.4219-8.9258-5.1328-14.059-4.7344z"
    fill="#3cb270" />
</svg>
